<?xml version="1.0" standalone="no"?><!DOCTYPE svg PUBLIC "-//W3C//DTD SVG 1.1//EN" "http://www.w3.org/Graphics/SVG/1.1/DTD/svg11.dtd"><svg class="icon" height="512" viewBox="0 0 1024 1024" version="1.1" xmlns="http://www.w3.org/2000/svg"><path d="M317.957097 234.739279m-106.749256 0a104.318 104.318 0 1 0 213.498512 0 104.318 104.318 0 1 0-213.498512 0Z"  /><path d="M473.371726 698.650027l-27.730575 0c0 0-24.602328 103.523795-91.577718 154.618497 45.524846-153.85818-103.609753-209.586412-79.012541 0-60.175521-51.989071-91.056855-154.618497-91.056855-154.618497l-29.821189 0 0.520863-201.981201c0 0-63.578014 16.71673-108.317984 53.214992 46.309722-200.546525 218.010269-209.376635 218.010269-209.376635s21.475104 14.913665 51.411927 14.913665c29.826306 0 53.766554-14.913665 53.766554-14.913665s103.413278-0.39295 188.967816 67.895343c-3.530406 24.1357-38.066991 56.710606-38.066991 56.710606s-23.020296 15.538905-46.567595 19.720134C473.898729 509.693468 473.371726 698.650027 473.371726 698.650027z"  /><path d="M534.594089 698.858782l32.341592 2.38021c0 0 34.646078 94.655823 101.622492 145.748479-38.20309-143.896294 106.22123-199.896726 82.672908 0 60.182684-51.988048 84.121909-145.246035 84.121909-145.246035l29.826306 0-0.528026-201.981201c0 0 68.680219 10.093892 113.420189 46.592155-46.308699-200.546525-220.561371-206.04168-220.561371-206.04168s-35.995819 12.166087-65.933665 12.166087c-29.825282 0-35.32146-10.988262-35.32146-10.988262s-19.61064-14.913665-87.910189 61.223387c0 0-14.912641 52.589752-88.475054 107.533109-0.624217 6.169513-1.385557 21.24179 0.308015 35.370579 17.525142 14.078647 54.599526 14.97404 54.599526 14.97404L534.594089 698.858782z"  /><path d="M33.817712 549.883819"  /><path d="M453.748806 882.56578c0 19.071358-65.074088 34.537608-145.345296 34.537608-80.270185 0-145.338133-15.46625-145.338133-34.537608 0-19.070334 65.067948-34.536584 145.338133-34.536584C388.673695 848.029196 453.748806 863.495446 453.748806 882.56578z"  /><path d="M843.852572 881.525078c0 19.070334-62.781882 34.536584-140.242068 34.536584-77.450976 0-140.230812-15.46625-140.230812-34.536584 0-19.071358 62.780859-34.537608 140.230812-34.537608C781.07069 846.98747 843.852572 862.45372 843.852572 881.525078z"  /><path d="M151.971715 846.98747c4.188392 12.082176-7.444553 28.575826-26.54047 7.691169-5.51869-14.547321-76.43688-98.852402-104.639199-226.767723-7.475252-135.215588 112.266923-60.696384 116.112508-31.029714 3.084245 23.805172-16.35448 19.095917-23.025413 13.57825-2.673899-27.484981-95.257527-78.750575-57.034994 43.955094C108.157837 788.794094 147.783323 834.907341 151.971715 846.98747z"  /><path d="M874.477057 842.60772c-4.194532 12.082176 7.443529 28.575826 26.54047 7.691169 5.519714-14.545274 76.429717-98.852402 104.639199-226.767723 7.482415-135.214565-112.267946-60.696384-116.119671-31.029714-3.079128 23.805172 16.361643 19.095917 23.033599 13.57825 2.672876-27.484981 95.256504-78.750575 57.028854 43.955094C918.284795 784.415366 878.669542 830.528614 874.477057 842.60772z"  /><path d="M820.856835 158.761863c0-30.022781-24.333198-54.355979-54.355979-54.355979-23.056112 0-42.630936 14.411221-50.52779 34.671661-5.015224-0.773619-10.107195-1.288343-15.33015-1.288343-55.582923 0-100.666724 45.072545-100.666724 100.665701 0 55.594179 45.083801 100.666724 100.666724 100.666724 55.605436 0 100.664677-45.071522 100.664677-100.666724 0-11.871375-2.157129-23.215748-5.935176-33.800827C810.627866 195.039091 820.856835 178.13919 820.856835 158.761863z"  /></svg>